<?xml version="1.0" encoding="utf-8"?>
<!-- Generator: Adobe Illustrator 25.4.1, SVG Export Plug-In . SVG Version: 6.00 Build 0)  -->
<svg version="1.1" id="Layer_1" xmlns="http://www.w3.org/2000/svg" xmlns:xlink="http://www.w3.org/1999/xlink" x="0px" y="0px"
	 viewBox="0 0 141 151" style="enable-background:new 0 0 141 151;" xml:space="preserve">
<style type="text/css">
	.st0{fill:#FFFFFF;}
	.st1{fill-rule:evenodd;clip-rule:evenodd;filter:url(#Adobe_OpacityMaskFilter);}
	.st2{mask:url(#mask0_45312:339_00000086658256128950199500000013357429001425208204_);}
	.st3{fill:url(#SVGID_1_);}
	.st4{fill:#2C3E50;}
</style>
<path class="st0" d="M3.3,129.9c0.6-0.7,1.3-1.3,2.3-1.8c1-0.5,2-0.7,3.3-0.7c1.4,0,2.6,0.3,3.8,1c1.2,0.7,2.1,1.6,2.7,2.9
	c0.7,1.2,1,2.6,1,4.2c0,1.6-0.3,3-1,4.3c-0.7,1.2-1.6,2.2-2.7,2.9c-1.1,0.7-2.4,1-3.8,1c-1.2,0-2.3-0.2-3.2-0.7
	c-0.9-0.5-1.7-1.1-2.3-1.8v9.8H0v-23.4h3.3V129.9z M12.9,135.5c0-1.1-0.2-2-0.7-2.8c-0.4-0.8-1-1.4-1.8-1.8
	c-0.7-0.4-1.5-0.6-2.4-0.6c-0.8,0-1.6,0.2-2.4,0.6c-0.7,0.4-1.3,1-1.8,1.8c-0.4,0.8-0.7,1.8-0.7,2.8c0,1.1,0.2,2.1,0.7,2.9
	c0.5,0.8,1.1,1.4,1.8,1.8c0.7,0.4,1.5,0.6,2.4,0.6c0.8,0,1.6-0.2,2.4-0.6c0.7-0.4,1.3-1.1,1.8-1.9C12.7,137.5,12.9,136.5,12.9,135.5
	z"/>
<path class="st0" d="M22.8,129.9c0.5-0.8,1.1-1.4,1.9-1.9c0.8-0.5,1.8-0.7,2.9-0.7v3.4h-0.8c-1.3,0-2.3,0.3-2.9,1
	c-0.7,0.7-1,1.8-1,3.4v8.3h-3.3v-15.9h3.3V129.9z"/>
<path class="st0" d="M37.4,143.7c-1.5,0-2.8-0.3-4.1-1c-1.2-0.7-2.2-1.6-2.8-2.9c-0.7-1.2-1-2.7-1-4.3c0-1.6,0.4-3,1.1-4.3
	c0.7-1.2,1.7-2.2,2.9-2.9c1.2-0.7,2.6-1,4.1-1c1.5,0,2.9,0.3,4.1,1c1.2,0.7,2.2,1.6,2.9,2.9c0.7,1.2,1.1,2.7,1.1,4.3s-0.4,3-1.1,4.3
	c-0.7,1.2-1.7,2.2-3,2.9C40.3,143.4,39,143.7,37.4,143.7z M37.4,140.9c0.8,0,1.6-0.2,2.4-0.6c0.7-0.4,1.4-1,1.8-1.8
	c0.5-0.8,0.7-1.8,0.7-2.9c0-1.2-0.2-2.1-0.7-2.9c-0.4-0.8-1-1.4-1.8-1.8c-0.7-0.4-1.5-0.6-2.4-0.6c-0.8,0-1.6,0.2-2.4,0.6
	c-0.7,0.4-1.3,1-1.7,1.8c-0.4,0.8-0.6,1.8-0.6,2.9c0,1.7,0.4,3,1.3,4C35,140.4,36.1,140.9,37.4,140.9z"/>
<path class="st0" d="M68.1,127.3c1.2,0,2.4,0.3,3.3,0.8c1,0.5,1.8,1.3,2.3,2.3c0.6,1,0.9,2.2,0.9,3.7v9.4h-3.3v-8.9
	c0-1.4-0.4-2.5-1.1-3.3c-0.7-0.8-1.7-1.2-2.9-1.2c-1.2,0-2.2,0.4-2.9,1.2c-0.7,0.7-1.1,1.8-1.1,3.3v8.9h-3.3v-8.9
	c0-1.4-0.4-2.5-1.1-3.3c-0.7-0.8-1.7-1.2-2.9-1.2c-1.2,0-2.2,0.4-2.9,1.2c-0.7,0.7-1.1,1.8-1.1,3.3v8.9h-3.3v-15.9h3.3v1.8
	c0.5-0.7,1.2-1.2,2-1.5c0.8-0.4,1.7-0.5,2.6-0.5c1.3,0,2.4,0.3,3.4,0.8c1,0.5,1.8,1.3,2.3,2.3c0.5-1,1.2-1.7,2.2-2.3
	C65.9,127.6,66.9,127.3,68.1,127.3z"/>
<path class="st0" d="M77.7,135.5c0-1.6,0.3-3,1-4.2c0.7-1.2,1.6-2.2,2.7-2.9c1.2-0.7,2.4-1,3.8-1c1.2,0,2.3,0.2,3.3,0.7
	c0.9,0.5,1.7,1.1,2.2,1.8v-2.3H94v15.9h-3.3v-2.4c-0.6,0.7-1.3,1.4-2.3,1.9c-1,0.5-2.1,0.7-3.3,0.7c-1.4,0-2.6-0.3-3.7-1
	c-1.1-0.7-2-1.7-2.7-2.9C78.1,138.5,77.7,137,77.7,135.5z M90.7,135.5c0-1.1-0.2-2-0.7-2.8c-0.4-0.8-1-1.4-1.8-1.8
	c-0.7-0.4-1.5-0.6-2.4-0.6c-0.8,0-1.6,0.2-2.4,0.6c-0.7,0.4-1.3,1-1.8,1.8c-0.4,0.8-0.7,1.7-0.7,2.8c0,1.1,0.2,2.1,0.7,2.9
	c0.5,0.8,1.1,1.5,1.8,1.9c0.7,0.4,1.5,0.6,2.4,0.6c0.8,0,1.6-0.2,2.4-0.6c0.7-0.4,1.3-1,1.8-1.8C90.5,137.6,90.7,136.6,90.7,135.5z"
	/>
<path class="st0" d="M104.6,135.5l7.3,7.9h-4.4l-5.9-6.8v6.8h-3.3v-21.3h3.3v12.4l5.8-6.9h4.5L104.6,135.5z"/>
<path class="st0" d="M128.8,135.1c0,0.6,0,1.1-0.1,1.6h-12.1c0.1,1.3,0.6,2.3,1.4,3.1c0.8,0.8,1.9,1.2,3.1,1.2c1.8,0,3-0.7,3.7-2.2
	h3.5c-0.5,1.5-1.4,2.7-2.6,3.6c-1.2,0.9-2.8,1.4-4.7,1.4c-1.5,0-2.9-0.3-4.1-1c-1.2-0.7-2.1-1.6-2.8-2.9c-0.7-1.2-1-2.7-1-4.3
	c0-1.6,0.3-3.1,1-4.3c0.7-1.2,1.6-2.2,2.8-2.9c1.2-0.7,2.6-1,4.1-1c1.5,0,2.8,0.3,4,1c1.2,0.7,2.1,1.6,2.7,2.8
	C128.5,132.2,128.8,133.6,128.8,135.1z M125.4,134.1c0-1.2-0.5-2.2-1.3-2.9c-0.8-0.7-1.9-1.1-3.1-1.1c-1.1,0-2.1,0.4-2.9,1.1
	c-0.8,0.7-1.3,1.7-1.4,2.9H125.4z"/>
<path class="st0" d="M135.3,129.9c0.5-0.8,1.1-1.4,1.9-1.9c0.8-0.5,1.8-0.7,2.9-0.7v3.4h-0.8c-1.3,0-2.3,0.3-2.9,1
	c-0.7,0.7-1,1.8-1,3.4v8.3H132v-15.9h3.3V129.9z"/>
<defs>
	<filter id="Adobe_OpacityMaskFilter" filterUnits="userSpaceOnUse" x="6.1" y="-1.1" width="126.3" height="109.2">
		
			<feColorMatrix  type="matrix" values="-1 0 0 0 1  0 -1 0 0 1  0 0 -1 0 1  0 0 0 1 0" color-interpolation-filters="sRGB" result="source"/>
	</filter>
</defs>
<mask maskUnits="userSpaceOnUse" x="6.1" y="-1.1" width="126.3" height="109.2" id="mask0_45312:339_00000086658256128950199500000013357429001425208204_">
	<path class="st1" d="M131.5,83.1c0.2-0.3,0.2-1.3,0.2-1.6V25.5c0-0.3,0-1.3-0.2-1.6c-0.3,0-1,0.3-1.2,0.5c-4.7,2.5-9.3,5-14,7.5
		l-1.7,0.9v-4.5C114.7,12.7,102,0,86.4,0H36C20.4,0,7.7,12.7,7.7,28.3v50.5C7.7,94.3,20.4,107,36,107h50.5
		c15.5,0,28.3-12.7,28.3-28.3v-4.5l1.6,0.9c4.7,2.5,9.3,5,14,7.5C130.6,82.7,131.2,83.1,131.5,83.1z"/>
</mask>
<g class="st2">
	
		<linearGradient id="SVGID_1_" gradientUnits="userSpaceOnUse" x1="39.0127" y1="31.9855" x2="112.776" y2="194.6128" gradientTransform="matrix(1 0 0 -1 0 152)">
		<stop  offset="0" style="stop-color:#FFCF4B"/>
		<stop  offset="0.52" style="stop-color:#FF8C7C"/>
		<stop  offset="1" style="stop-color:#FA5C98"/>
	</linearGradient>
	<path class="st3" d="M132.3-1.1H6.1v109.2h126.3V-1.1z"/>
	<g>
		<path class="st4" d="M61.2,63.7c12.3,0,22.2-10,22.2-22.2c0-12.3-9.9-22.2-22.2-22.2S39,29.2,39,41.5C39,53.7,48.9,63.7,61.2,63.7
			z M61.2,74.8c-14.8,0-44.4,7.4-44.4,22.2v11.1h88.8V97C105.6,82.2,76,74.8,61.2,74.8z"/>
	</g>
</g>
</svg>
